<svg enable-background="new 0 0 994.3 194.6" viewBox="0 0 994.3 194.6" xmlns="http://www.w3.org/2000/svg"><path d="m256.7 179.7 2.1-.2c2.8-.3 278.4-26.1 474.5-26.1 40.7 0 75.7 1.1 103.9 3.3h.2l20.1 16.1-2.3-.2c-.5 0-49.1-3.8-147.9-3.8-87.5 0-234.9 3-439.9 17.5h-.2z" fill="#dd0808"/><path d="m824.7 194.6c-1.2-.1-120.3-10-249-10-48.3 0-92.2 1.4-130.7 4.1h-.3l-8.8-7.3 1.8-.1c1.2-.1 118.7-7.4 246.3-7.4 65.2 0 122.1 1.9 169.1 5.6l2.6.2-30.7 14.8z" fill="#dd0808"/><g fill="#1f1a1b"><path d="m374 148.1-16.1 1.1c11.3-9.1 8.3-15.8 8.3-15.8l-13.3 1.2c-15.6 14.6-35.7 18.1-35.7 18.1-1.8.5-2.3.6-2.4.6 10.9-8.9 7.9-16.1 7.9-16.1l-13.2 1.2c-15.6 14.6-35.8 17.8-35.8 17.8l11.7-14.9c-21.3-2.2-41.5 10.7-41.5 10.7-7.2 4.4-5.5 7.3-5.5 7.3l-22.9 2.6 4.8-5.5c32.2-15.2 32.5-27.7 32.5-27.7l-13.5 1c-17.4 10.5-37.3 33.5-37.3 33.5l-27.6 3.1c-7.9.8-6.2-3.1-6.2-3.1s6.1-13.9 29.5-22.4c3.8-1.4 5.7-.8 5.7-.8 2.6.6-4.1 7.2-4.1 7.2l9.1-.9 7.6-8.2s10.1-10.1-12-6.1c0 0-34.2 5.1-55.3 35.5 0 0-7.2 10 13.4 7.6 0 0 67.2-7.8 98.9-10.5 0 0 27.9-1.9 46.4-18.8h1.4s1.2 3.4-10.2 11.5c0 0-7 4.3 4.3 3.2l1.5-.2s27.9-1.6 46.3-18.4h1.4s1.2 3.4-10.1 11.5c0 0-7 4.2 4.2 3.2 36.3-3.3 111.2-7.9 111.2-7.9l10.9-7.4c-15.2.8-47 3.1-47 3.1-2.2-2.9 6.1-8.9 6.1-8.9 7.2-4.9 9.6-2.5 9.6-2.5 1.3.9-1.9 4.4-1.9 4.4l7.7-.7 2-3.3c4.9-7.4-7.4-6-7.4-6-9.8.3-20.6 6.7-20.6 6.7-11.1 7-8.7 11.5-8.7 11.5l-21.4 1.4 13.4-15.4-12 .8zm-129.8-14.5s-1.3 9.1-18.9 16.9c.1 0 12.6-13 18.9-16.9zm18.6 23.2-7.6.7s-4.4.4-1.3-2.9c0 0 4.2-4.8 16.1-7.4z"/><path d="m486.7 148.1 61.8-2.7 12.4-.8c24.8-1.8 39.5-15.8 39.5-15.8 1.6-1.3 3.8-.9 4.8-.6.3.1.9.3 1.1.3 2.8.8 1 1.8 1 1.8l-.8.8c-2.3 2.1-4 4.5-4 4.5-6.3 8.5 4.7 7.4 4.7 7.4s28-.1 47.5-15.6l1.3.1s1 3.5-10.9 10.9c0 0-7.2 3.8 4 3.4l1.6-.1 41.9-1.3 7-6.3c-3 .5-38.1 1.2-38.1 1.2 11.5-8.2 9-15.5 9-15.5l-13.3.3c-16.6 11.1-36.1 16-36.1 16-10.5 2.7-8.1.1-8.1.1 1.4-2.5 7.5-6.6 7.5-6.6 2.3-1.6 1.6-2.9 1.6-2.9-1.6-3.4-14.1-6-14.1-6-5.2-1-7.2.1-7.8.6-.2.2-1.6 1.3-2.2 1.8-16.3 11.5-34 14.1-34 14.1l11.4-13.7c-21-3.5-42.1 8.1-42.1 8.1-7 3.3-6.1 7-6.1 7l-27.7 1.4c-8 .3-6.3-3.3-6.3-3.3s4.7-10.2 29.4-20c4.8-2 7.4-1.1 7.4-1.1 2.6.8-4.5 7-4.5 7l9.1-.3 8.1-7.7s10.7-9.4-11.5-6.9c0 0-34.4 2.9-57.4 31.9 0 0-7.9 9.6 12.9 8.5zm56.3-13.4s4.5-4.6 16.5-6.3l-7.7 9.1-7.7.2s-4.4.2-1.1-3z"/><path d="m722.3 141.8s7 .3 17.6-5.8c0 0 5.7 5.3 21.9 5.7l11.4.3 14.9-14.3 7.9-.1c3.9.1 1.2 2.7 1.2 2.7l-6.7 6.8c-4.9 5.5 3.8 5.2 3.8 5.2l68.4 1 9.4-6.9c-14.7-.7-35.9-1.1-35.9-1.1-1.8-3.2 7.1-8.5 7.1-8.5 7.7-4 9.7-1.4 9.7-1.4 1.2 1-2.4 4.1-2.4 4.1l7.7.2 2.4-3c5.7-6.8-6.7-6.8-6.7-6.8-9.8-.8-21.2 4.3-21.2 4.3-11.8 5.7-10 10.9-10 10.9l-18.7-.3 6.1-7c5.1-5.7-2.5-5.7-2.5-5.7l-7.8-.1c-6.8 0-8.6 2.1-8.6 2.1l.3-1.8h-11.6l-13 11.3s-9.7.3-17.5-2.9l1.1-.8c16.5-12 24.9-25.1 24.9-25.1l-24.8-.5s-15.3-.3-18.4 11.2c0 0-1.8 8.5 2 14.5 0 0-14.8 10.6-19-2.5l-11.1.1c.1.1 3.2 15.1 18.1 14.2zm17.5-22.5c.7-9.7 10.9-8.5 10.9-8.5l8 .2c-5.8 8.2-17 15-17 15-2.3-3.3-1.9-6.7-1.9-6.7z"/><path d="m398.8 121.2-6.4 6.7 11.7-.8 6-6.6z"/><path d="m871.6 143.7 12.6.2 8.9-6.8c-3.3-.2-7.5-.2-12-.5z"/></g><g fill="#dd0808"><path d="m102.2 124.1c.3-.3 27-29.2 52.2-55.4-31.8 2.7-72.4 6.3-109.7 11.4l-.4.1-8.8-6.2 2.6-.4c.6-.1 62.2-9.6 129.4-18.4 2.5-2.6 3.9-4 5.8-5.9-16 1.8-93.5 10.5-163.4 22.6l-.5.1-9.4-6.3 2.5-.5c1.5-.3 152.7-30.4 337.3-49.7l4.3-.4-29.7 19.8h-.3c-.7.1-65.1 5.7-93.6 8.8-.7.7-2.6 2.8-6.5 6.5 19.9-2.4 34.7-4.1 47.4-5.5l4.3-.5-28.1 18.7h-.3c-.2 0-16 1-39.4 2.8-9.9 9.6-34.6 33.6-56.9 56.6l-.3.3-40.4 3.6z"/><path d="m213.5 112.1c-2.2 0-5.2-.5-6.3-2.7s-.2-5.2 2.7-9.2c.3-.4 7.9-10.6 15.3-16.3.2-.1.5-.4.8-.6s.6-.5.8-.6c1.4-1.1 4.7-2.9 11.3-3.6l39.9-4 2.8-3.3s.1-.1.1-.1c-.3-.1-.8-.2-1.9-.2-.6 0-1.3 0-2.1.1l-43.5 3.7 22.2-15.1 51.3-4.5s.9-.1 2.2-.1c3.7 0 6.1 1 7 3 1.2 2.6-.4 6.2-4.9 11.2l-16.3 19.4c-.4.4-.8.9-.9 1.2.1.1.4.1 1 .1h.7c4.1-.4 40.3-3.5 57.4-4.5.1 0 2.7-.1 4-1.8l1.5-1.8c.1-.2.3-.4.3-.6-.1-.1-.5-.2-1.2-.2-.2 0-.4 0-.7 0l-34.4 2.4s-.6.1-1.5.1c-1.7 0-3.9-.3-5.2-1.8-.7-.9-1-2-.8-3.3.4-2.3 3.9-6.5 4.3-7 .6-.7 1.4-1.5 2.1-2.4 1.9-2.2 4-4.6 5.9-6.6.7-.9 7.9-9.6 26.5-11.2l46.2-3.6c.5 0 41.1-1.1 59-14.1l.3-.2 20.8-.9-12.1 11 40.4-2.3-3.5 2.3c-.1 0-7.1 4.2-18.3 12.5l-.3.2-31.6 1.9-19.5 20.7c-.2.2-.4.5-.4.6s.6.5 3.4.5c.6 0 1.3 0 2-.1.5 0 48.7-2.6 75-3.8l4.6-.2-4.1 2.2c-.1.1-13.5 7.3-20.6 12.9l-.3.2h-.3c-.6 0-60 3.1-82 4.4 0 0-.2 0-.4 0-2.3 0-10-.3-12-4.8-1.3-3.1.3-7 5-12.1l17.9-18.5-59.3 4c-1.5 0-5.5.5-7 2.5l-.1.1c-.1.1-.3.4-.3.5.2.1.6.3 1.9.3h1.2l28.7-1.8s.8-.1 1.9-.1c3.1 0 7 .5 8.3 3.1.9 1.7.4 3.8-1.4 6.4-.1.2-7.2 8.7-13.2 14.8-.3.3-7.6 8.2-20.7 9.2-1.1.1-113.5 9-148.2 12.6.1-.2-.5-.1-1.4-.1zm24.4-16.8h.4l22.1-2 3.7-4-19.4 1.7c-2.9.3-4.3 1.3-4.9 2-.4.4-.9.9-1.4 1.5-.4.4-.6.8-.7 1 .1-.2.2-.2.2-.2z"/><path d="m527.1 88.9c.2-.2 15.9-22.2 50.7-58.6-16.3-.5-33.6-.8-51.3-.8-24.7 0-41.7.5-41.9.5h-.4l-7.4-7.2 2.4-.2c43.8-2.8 104.2-3.9 109.6-4l5.2-4.6c-76.7.1-164 5.1-164.9 5.1h-.5l-8.2-7.9 2.3-.2c72.8-6.6 137.5-11 216.7-11h8.1l-2.8 2.8h-.1c-13.5 10.4-53.7 57.9-62 67.8l81.7-2.8-27.4 19.2h-.3c-55 .9-108 3.6-108.6 3.6l-2.2.1z"/><path d="m965.3 96.4c-25.8-2.5-85.4-5.9-86-5.9-11.6-.6-14.9-4.5-15.9-6.7l-12.3 5.6-30.8-1.1c-7.8-.2-12.2-1.7-13.4-4.7-1.3-3.3 2-6.6 2.1-6.8l16.8-17.9c2.6-2.4 2.4-3.2 2.4-3.2 0-.1-.5-.4-2.1-.4-.8 0-1.5.1-1.5.1-12 1.8-23.8 7.1-36.1 16.2-9.7 7.3-17.6 15.2-17.7 15.3l-.3.3h-.5c-6.9-.1-18.3-.2-34-.2-30.5 0-67 .3-67.3.3h-.2c-9.5 0-14.7-1.7-15.8-5.1-1.7-5.4 7.9-12.3 9-13l13.3-10.4c6.9-4.9 16.4-5.4 20.1-5.4h1.5l32.6-.3 3.5-3.2c.4-.4.6-.7.7-.9-.1 0-.2 0-.3 0h-.1l-51.5.2 29.5-13.5h48.9c5.9 0 9.2 1.1 10.2 3.5 1.2 2.7-1.5 5.6-1.6 5.7l-27.1 26.9 14.1.2 41.7-36.1 27.4.4-10.7 9.2c17.3-8.3 34.3-8.4 35.1-8.4h.2c7.7 0 12 1.5 13.3 4.5 1.6 3.6-2.3 7.7-2.4 7.9l-19.4 22.1c-.8 1-1 1.6-1.1 1.8h.2.3.1l22.4 1c5.1-15.1 27.8-29.2 28.8-29.8 7.4-5.2 13.2-6 16.1-6h.4c.4 0 1.2.1 2.2.1 1.3.1 2.8.1 3.8.2 10.8.5 38.3 2.6 38.5 2.7 5.1.4 8.1 1.8 9.1 4.2 1.2 3-1.5 6.3-2 6.8-3.3 4.7-14.8 14-16.2 15.1-2.6 2.1-7.1 4.6-13.4 4.6-.9 0-1.7 0-2.6-.1l-12-.9-9.1-13.8c-8.7 5.5-12.4 10.9-12.5 11-3.1 3.8-3 5.5-2.6 6.2.5 1.1 2.4 1.3 3.1 1.3 35.2 1.8 95.1 7.5 95.7 7.6l4 .4-28.7 12.6zm-277.1-25h.6.5.1l21.4-.5 4.4-4.1-18.3.4h-.2c-5 0-7.5 3.1-7.6 3.2v.1l-.1.1c-.4.3-.6.6-.8.8zm226.5-13.7 5.9.5h1c3.8 0 6.2-1.5 7.6-2.7.5-.4.9-1 1.2-1.3.1-.1.2-.2.2-.2-.2-.2-.9-.6-3.4-.8-1.9-.3-7-.5-7-.5-.2 0-.5 0-.7 0-4.9 0-7.8 1.8-7.8 1.8-1.8.9-3.4 1.9-4.9 2.8z"/></g></svg>